<svg width="916.3" height="94.401" viewBox="0 0 916.3 94.401" xmlns="http://www.w3.org/2000/svg"><g id="svgGroup" stroke-linecap="round" fill-rule="evenodd" font-size="9pt" stroke="#000" stroke-width="0.25mm" fill="#000" style="stroke:#000;stroke-width:0.25mm;fill:#000"><path d="M 167.8 71.2 L 158.8 71.2 L 158.8 19.2 L 167.5 19.2 L 167.5 27.9 Q 170.3 23.7 174.6 20.85 A 17.205 17.205 0 0 1 183.802 18.009 A 20.858 20.858 0 0 1 184.4 18 A 20.994 20.994 0 0 1 188.817 18.44 Q 191.803 19.082 194.085 20.663 A 13.128 13.128 0 0 1 194.55 21 A 15.751 15.751 0 0 1 199.998 28.69 A 19.154 19.154 0 0 1 200.1 29 Q 203.2 24.4 207.45 21.2 A 15.669 15.669 0 0 1 214.241 18.317 A 21.446 21.446 0 0 1 218 18 A 21.437 21.437 0 0 1 222.888 18.523 Q 226.474 19.362 228.963 21.551 A 12.994 12.994 0 0 1 230.65 23.35 A 18.992 18.992 0 0 1 234.061 30.622 Q 234.8 33.672 234.8 37.3 L 234.8 71.2 L 225.8 71.2 L 225.8 38 A 19.042 19.042 0 0 0 225.463 34.311 Q 225.027 32.105 224.028 30.362 A 10.982 10.982 0 0 0 223.3 29.25 A 7.974 7.974 0 0 0 217.487 25.954 A 10.678 10.678 0 0 0 216.4 25.9 A 11.926 11.926 0 0 0 209.641 28.028 A 15.996 15.996 0 0 0 208.05 29.25 Q 204.2 32.6 201.3 37.1 L 201.3 71.2 L 192.3 71.2 L 192.3 38 A 19.042 19.042 0 0 0 191.963 34.311 Q 191.527 32.105 190.528 30.362 A 10.982 10.982 0 0 0 189.8 29.25 A 7.974 7.974 0 0 0 183.987 25.954 A 10.678 10.678 0 0 0 182.9 25.9 A 12.02 12.02 0 0 0 176.581 27.728 A 16.244 16.244 0 0 0 174.6 29.15 Q 170.7 32.4 167.8 36.8 L 167.8 71.2 Z M 504.1 5.7 L 500.6 13.6 Q 496.4 11.3 492.05 9.8 A 27.36 27.36 0 0 0 485.951 8.48 A 34.225 34.225 0 0 0 482.4 8.3 A 20.13 20.13 0 0 0 474.913 9.671 A 18.919 18.919 0 0 0 471.2 11.65 A 20.295 20.295 0 0 0 465.876 17.068 A 27.457 27.457 0 0 0 463.45 21.5 A 31.614 31.614 0 0 0 461.404 28.231 Q 460.801 31.363 460.65 34.955 A 58.311 58.311 0 0 0 460.6 37.4 Q 460.6 44.709 462.568 50.163 A 26.036 26.036 0 0 0 463.2 51.75 A 24.18 24.18 0 0 0 466.132 56.797 A 19.102 19.102 0 0 0 470.4 60.9 A 17.93 17.93 0 0 0 480.209 64.086 A 21.993 21.993 0 0 0 481 64.1 A 22.762 22.762 0 0 0 486.597 63.437 A 18.835 18.835 0 0 0 490.95 61.75 A 40.361 40.361 0 0 0 493.952 59.967 Q 496.237 58.463 497.8 56.9 L 497.8 41.6 L 483.3 41.6 L 483.3 34.1 L 506.8 34.1 L 506.8 71.2 L 498.4 71.2 L 498.4 64.2 A 35.883 35.883 0 0 1 494.022 67.492 A 47.354 47.354 0 0 1 489.9 69.85 A 23.594 23.594 0 0 1 480.494 72.35 A 28.131 28.131 0 0 1 478.8 72.4 A 26.572 26.572 0 0 1 469.487 70.8 A 24.511 24.511 0 0 1 464.4 68.2 Q 458.1 64 454.5 56.25 A 37.529 37.529 0 0 1 451.592 46.68 A 51.837 51.837 0 0 1 450.9 38 A 56.301 56.301 0 0 1 451.735 28.083 A 42.572 42.572 0 0 1 454.7 18.25 A 32.73 32.73 0 0 1 460.484 9.302 A 29.455 29.455 0 0 1 465.65 4.85 Q 472.8 0 482.9 0 Q 489.4 0 494.5 1.6 Q 499.6 3.2 504.1 5.7 Z M 313.4 90 L 316.7 82.2 A 20.562 20.562 0 0 0 320.517 84.573 A 24.737 24.737 0 0 0 322.3 85.35 Q 325.059 86.428 328.859 86.577 A 31.788 31.788 0 0 0 330.1 86.6 A 21.701 21.701 0 0 0 334.621 86.157 Q 337.522 85.539 339.722 84.06 A 12.576 12.576 0 0 0 341.25 82.85 A 11.352 11.352 0 0 0 344.157 78.357 Q 345.3 75.256 345.3 70.9 L 345.3 64.5 Q 343.3 66.9 339.55 69.05 Q 335.8 71.2 330.6 71.2 Q 324.7 71.2 319.4 68.15 A 22.236 22.236 0 0 1 312.108 61.313 A 27.437 27.437 0 0 1 310.8 59.2 A 25.181 25.181 0 0 1 308.087 51.576 A 35.033 35.033 0 0 1 307.5 45 A 32.06 32.06 0 0 1 308.417 37.193 A 26.682 26.682 0 0 1 310.75 31.1 A 25.706 25.706 0 0 1 316.814 23.478 A 24.448 24.448 0 0 1 319.5 21.5 Q 325 18 331.6 18 A 22.366 22.366 0 0 1 336.42 18.502 A 18.715 18.715 0 0 1 339.6 19.5 A 25.705 25.705 0 0 1 343.428 21.469 A 20.998 20.998 0 0 1 345.8 23.2 L 345.8 19.2 L 354 19.2 L 354 70 Q 354 78.6 351 84 Q 348 89.4 342.65 91.9 A 25.811 25.811 0 0 1 336.046 93.922 A 35.243 35.243 0 0 1 330.1 94.4 Q 325.5 94.4 321.15 93.3 A 27.232 27.232 0 0 1 315.85 91.383 A 23.518 23.518 0 0 1 313.4 90 Z M 584.7 71.2 L 575.7 71.2 L 575.7 19.2 L 584.4 19.2 L 584.4 27.9 Q 587.2 23.7 591.55 20.85 A 17.316 17.316 0 0 1 598.656 18.226 A 22.629 22.629 0 0 1 601.9 18 A 23.225 23.225 0 0 1 606.965 18.518 Q 612.059 19.656 615.05 23.3 Q 619.175 28.326 619.388 36.409 A 33.764 33.764 0 0 1 619.4 37.3 L 619.4 71.2 L 610.4 71.2 L 610.4 38.3 A 19.265 19.265 0 0 0 610.058 34.559 Q 609.619 32.345 608.619 30.597 A 10.966 10.966 0 0 0 607.75 29.3 A 8.579 8.579 0 0 0 601.473 25.947 A 12.061 12.061 0 0 0 600.4 25.9 A 13.122 13.122 0 0 0 593.551 27.864 A 17.353 17.353 0 0 0 591.7 29.15 Q 587.6 32.4 584.7 36.8 L 584.7 71.2 Z M 64.8 68.7 L 56.1 72.2 L 48.3 52.2 L 15.9 52.2 L 8.1 72 L 0 68.7 L 27.4 1.2 L 37.8 1.2 L 64.8 68.7 Z M 411.6 48.9 L 375.2 48.9 A 24.088 24.088 0 0 0 376.339 53.925 Q 377.675 57.738 380.3 60.3 Q 384.5 64.4 391.4 64.4 Q 395.9 64.4 399.5 63.45 Q 403.1 62.5 406.4 61 L 408.5 68.7 A 40.77 40.77 0 0 1 404.165 70.326 A 51.863 51.863 0 0 1 400.4 71.35 A 38.914 38.914 0 0 1 395.308 72.17 A 52.025 52.025 0 0 1 390.3 72.4 A 28.318 28.318 0 0 1 382.554 71.395 A 21.108 21.108 0 0 1 372.55 65.25 A 23.521 23.521 0 0 1 367.345 55.71 Q 366 51.046 366 45.2 A 35.359 35.359 0 0 1 366.833 37.378 A 28.84 28.84 0 0 1 368.95 31.25 A 24.642 24.642 0 0 1 373.966 24.168 A 22.887 22.887 0 0 1 377.2 21.55 A 21.048 21.048 0 0 1 387.459 18.078 A 26.205 26.205 0 0 1 389.5 18 Q 397 18 401.95 21.25 Q 406.9 24.5 409.4 30 A 28.185 28.185 0 0 1 411.826 39.864 A 33.434 33.434 0 0 1 411.9 42.1 A 75.204 75.204 0 0 1 411.609 48.797 A 69.426 69.426 0 0 1 411.6 48.9 Z M 563.4 48.9 L 527 48.9 A 24.088 24.088 0 0 0 528.139 53.925 Q 529.475 57.738 532.1 60.3 Q 536.3 64.4 543.2 64.4 Q 547.7 64.4 551.3 63.45 Q 554.9 62.5 558.2 61 L 560.3 68.7 A 40.77 40.77 0 0 1 555.965 70.326 A 51.863 51.863 0 0 1 552.2 71.35 A 38.914 38.914 0 0 1 547.108 72.17 A 52.025 52.025 0 0 1 542.1 72.4 A 28.318 28.318 0 0 1 534.354 71.395 A 21.108 21.108 0 0 1 524.35 65.25 A 23.521 23.521 0 0 1 519.145 55.71 Q 517.8 51.046 517.8 45.2 A 35.359 35.359 0 0 1 518.633 37.378 A 28.84 28.84 0 0 1 520.75 31.25 A 24.642 24.642 0 0 1 525.766 24.168 A 22.887 22.887 0 0 1 529 21.55 A 21.048 21.048 0 0 1 539.259 18.078 A 26.205 26.205 0 0 1 541.3 18 Q 548.8 18 553.75 21.25 Q 558.7 24.5 561.2 30 A 28.185 28.185 0 0 1 563.626 39.864 A 33.434 33.434 0 0 1 563.7 42.1 A 75.204 75.204 0 0 1 563.409 48.797 A 69.426 69.426 0 0 1 563.4 48.9 Z M 677 48.9 L 640.6 48.9 A 24.088 24.088 0 0 0 641.739 53.925 Q 643.075 57.738 645.7 60.3 Q 649.9 64.4 656.8 64.4 Q 661.3 64.4 664.9 63.45 Q 668.5 62.5 671.8 61 L 673.9 68.7 A 40.77 40.77 0 0 1 669.565 70.326 A 51.863 51.863 0 0 1 665.8 71.35 A 38.914 38.914 0 0 1 660.708 72.17 A 52.025 52.025 0 0 1 655.7 72.4 A 28.318 28.318 0 0 1 647.954 71.395 A 21.108 21.108 0 0 1 637.95 65.25 A 23.521 23.521 0 0 1 632.745 55.71 Q 631.4 51.046 631.4 45.2 A 35.359 35.359 0 0 1 632.233 37.378 A 28.84 28.84 0 0 1 634.35 31.25 A 24.642 24.642 0 0 1 639.366 24.168 A 22.887 22.887 0 0 1 642.6 21.55 A 21.048 21.048 0 0 1 652.859 18.078 A 26.205 26.205 0 0 1 654.9 18 Q 662.4 18 667.35 21.25 Q 672.3 24.5 674.8 30 A 28.185 28.185 0 0 1 677.226 39.864 A 33.434 33.434 0 0 1 677.3 42.1 A 75.204 75.204 0 0 1 677.009 48.797 A 69.426 69.426 0 0 1 677 48.9 Z M 789.9 53.3 L 789.9 28.9 L 780.9 28.9 L 780.9 21.1 L 790.1 21.1 L 792 4.7 L 798.9 4.7 L 798.9 21.1 L 813.3 21.1 L 813.3 28.9 L 798.9 28.9 L 798.9 54 A 21.559 21.559 0 0 0 799.068 56.796 Q 799.541 60.402 801.35 62.1 Q 803.8 64.4 807.2 64.4 Q 809.7 64.4 811.95 63.6 Q 814.2 62.8 816.1 61.7 L 818.6 68.9 A 18.546 18.546 0 0 1 816.982 69.756 Q 816.18 70.135 815.234 70.508 A 43.365 43.365 0 0 1 813.2 71.25 Q 809.8 72.4 806.1 72.4 Q 798.6 72.4 794.25 67.45 A 16.116 16.116 0 0 1 791.022 61.548 Q 790.259 59.118 790.015 56.181 A 34.777 34.777 0 0 1 789.9 53.3 Z M 285.9 23.4 L 285.9 19.2 L 294.1 19.2 L 294.1 58.6 A 12.15 12.15 0 0 0 294.202 60.236 Q 294.534 62.67 295.95 63.55 Q 297.8 64.7 300 64.7 L 298.1 71.7 A 17.722 17.722 0 0 1 293.835 71.228 Q 288.198 69.828 286.603 64.28 A 13.59 13.59 0 0 1 286.5 63.9 A 21.307 21.307 0 0 1 283.39 67.326 A 28.498 28.498 0 0 1 280.25 69.75 Q 276.3 72.4 270.2 72.4 Q 263.7 72.4 258.4 69.1 A 22.947 22.947 0 0 1 250.987 61.574 A 27.923 27.923 0 0 1 249.95 59.75 A 27.228 27.228 0 0 1 247.32 51.808 A 36.644 36.644 0 0 1 246.8 45.5 A 33.142 33.142 0 0 1 247.797 37.231 A 27.968 27.968 0 0 1 249.95 31.5 Q 253.1 25.3 258.65 21.65 A 22.297 22.297 0 0 1 269.845 18.044 A 27.388 27.388 0 0 1 271.4 18 A 22.584 22.584 0 0 1 276.194 18.491 A 18.703 18.703 0 0 1 279.55 19.55 A 26.002 26.002 0 0 1 283.837 21.844 A 22.103 22.103 0 0 1 285.9 23.4 Z M 761.8 23.4 L 761.8 19.2 L 770 19.2 L 770 58.6 A 12.15 12.15 0 0 0 770.102 60.236 Q 770.434 62.67 771.85 63.55 Q 773.7 64.7 775.9 64.7 L 774 71.7 A 17.722 17.722 0 0 1 769.735 71.228 Q 764.098 69.828 762.503 64.28 A 13.59 13.59 0 0 1 762.4 63.9 A 21.307 21.307 0 0 1 759.29 67.326 A 28.498 28.498 0 0 1 756.15 69.75 Q 752.2 72.4 746.1 72.4 Q 739.6 72.4 734.3 69.1 A 22.947 22.947 0 0 1 726.887 61.574 A 27.923 27.923 0 0 1 725.85 59.75 A 27.228 27.228 0 0 1 723.22 51.808 A 36.644 36.644 0 0 1 722.7 45.5 A 33.142 33.142 0 0 1 723.697 37.231 A 27.968 27.968 0 0 1 725.85 31.5 Q 729 25.3 734.55 21.65 A 22.297 22.297 0 0 1 745.745 18.044 A 27.388 27.388 0 0 1 747.3 18 A 22.584 22.584 0 0 1 752.094 18.491 A 18.703 18.703 0 0 1 755.45 19.55 A 26.002 26.002 0 0 1 759.737 21.844 A 22.103 22.103 0 0 1 761.8 23.4 Z M 698.3 71.2 L 689.3 71.2 L 689.3 19.2 L 698 19.2 L 698 30.5 Q 699.3 27.2 701.5 24.35 Q 703.7 21.5 707 19.75 A 14.817 14.817 0 0 1 711.68 18.226 A 19.459 19.459 0 0 1 714.7 18 Q 716.2 18 717.7 18.15 A 18.972 18.972 0 0 1 718.755 18.284 Q 719.255 18.362 719.682 18.463 A 8.817 8.817 0 0 1 720.2 18.6 L 717.5 27.9 A 9.763 9.763 0 0 0 715.355 27.288 Q 714.259 27.1 713 27.1 A 12.958 12.958 0 0 0 706.37 28.946 A 15.609 15.609 0 0 0 705.95 29.2 Q 702.622 31.286 700.478 35.642 A 22.927 22.927 0 0 0 700.45 35.7 Q 698.687 39.307 698.37 44.528 A 39.09 39.09 0 0 0 698.3 46.9 L 698.3 71.2 Z M 894.4 71.2 L 885.4 71.2 L 885.4 19.2 L 894.1 19.2 L 894.1 30.5 Q 895.4 27.2 897.6 24.35 Q 899.8 21.5 903.1 19.75 A 14.817 14.817 0 0 1 907.78 18.226 A 19.459 19.459 0 0 1 910.8 18 Q 912.3 18 913.8 18.15 A 18.972 18.972 0 0 1 914.855 18.284 Q 915.355 18.362 915.782 18.463 A 8.817 8.817 0 0 1 916.3 18.6 L 913.6 27.9 A 9.763 9.763 0 0 0 911.455 27.288 Q 910.359 27.1 909.1 27.1 A 12.958 12.958 0 0 0 902.47 28.946 A 15.609 15.609 0 0 0 902.05 29.2 Q 898.722 31.286 896.578 35.642 A 22.927 22.927 0 0 0 896.55 35.7 Q 894.787 39.307 894.47 44.528 A 39.09 39.09 0 0 0 894.4 46.9 L 894.4 71.2 Z M 834.2 68.95 A 24.559 24.559 0 0 0 838.798 71.04 Q 842.853 72.4 847.5 72.4 Q 854.9 72.4 860.75 69 Q 866.6 65.6 870 59.45 A 26.255 26.255 0 0 0 872.653 52.309 A 34.184 34.184 0 0 0 873.4 45 A 34.542 34.542 0 0 0 872.915 39.092 A 25.795 25.795 0 0 0 869.95 30.65 Q 866.5 24.6 860.65 21.3 A 24.848 24.848 0 0 0 856.009 19.273 A 27.738 27.738 0 0 0 847.5 18 A 31.325 31.325 0 0 0 845.92 18.04 A 26.169 26.169 0 0 0 834.3 21.3 Q 828.4 24.6 825 30.7 A 26.023 26.023 0 0 0 822.251 38.29 A 35.006 35.006 0 0 0 821.6 45.2 A 34.82 34.82 0 0 0 821.865 49.554 A 27.451 27.451 0 0 0 824.95 59.35 Q 828.3 65.5 834.2 68.95 Z M 84.3 71.2 L 74.8 71.2 L 74.8 1.2 L 84.3 1.2 L 84.3 71.2 Z M 141.8 71.2 L 132.3 71.2 L 132.3 1.2 L 141.8 1.2 L 141.8 71.2 Z M 847.5 64.4 Q 855.4 64.4 859.8 59.05 A 18.802 18.802 0 0 0 863.619 50.96 A 27.105 27.105 0 0 0 864.2 45.2 Q 864.2 40 862 35.65 A 19.198 19.198 0 0 0 857.828 30.081 A 18.17 18.17 0 0 0 856.05 28.65 Q 852.3 26 847.5 26 A 19.249 19.249 0 0 0 842.274 26.672 A 14.037 14.037 0 0 0 835.2 31.2 A 17.878 17.878 0 0 0 831.526 38.574 Q 830.8 41.506 830.8 45 Q 830.8 50.2 833 54.65 A 19.437 19.437 0 0 0 836.53 59.69 A 17.627 17.627 0 0 0 838.95 61.75 Q 842.7 64.4 847.5 64.4 Z M 285.1 57.9 L 285.1 30 Q 282.4 28.1 279.15 26.95 Q 275.9 25.8 272.3 25.8 A 15.924 15.924 0 0 0 267.329 26.554 A 14.024 14.024 0 0 0 263.85 28.25 A 16.301 16.301 0 0 0 258.831 33.674 A 19.962 19.962 0 0 0 258.1 35.05 A 20.663 20.663 0 0 0 256.347 40.727 A 27.678 27.678 0 0 0 256 45.2 Q 256 50.8 258.1 55.15 A 17.602 17.602 0 0 0 261.206 59.696 A 15.697 15.697 0 0 0 263.9 61.95 Q 267.6 64.4 272.2 64.4 Q 276 64.4 279.4 62.55 Q 282.8 60.7 285.1 57.9 Z M 761 57.9 L 761 30 Q 758.3 28.1 755.05 26.95 Q 751.8 25.8 748.2 25.8 A 15.924 15.924 0 0 0 743.229 26.554 A 14.024 14.024 0 0 0 739.75 28.25 A 16.301 16.301 0 0 0 734.731 33.674 A 19.962 19.962 0 0 0 734 35.05 A 20.663 20.663 0 0 0 732.247 40.727 A 27.678 27.678 0 0 0 731.9 45.2 Q 731.9 50.8 734 55.15 A 17.602 17.602 0 0 0 737.106 59.696 A 15.697 15.697 0 0 0 739.8 61.95 Q 743.5 64.4 748.1 64.4 Q 751.9 64.4 755.3 62.55 Q 758.7 60.7 761 57.9 Z M 345 57.2 L 345 30 Q 342.834 28.425 339.797 27.141 A 36.018 36.018 0 0 0 339.7 27.1 A 16.249 16.249 0 0 0 335.896 26.049 A 22.135 22.135 0 0 0 332.5 25.8 Q 328.4 25.8 324.8 28 Q 321.2 30.2 318.95 34.35 Q 316.7 38.5 316.7 44.5 A 24.32 24.32 0 0 0 317.178 49.436 A 18.311 18.311 0 0 0 318.95 54.4 A 18.576 18.576 0 0 0 321.861 58.475 A 15.802 15.802 0 0 0 324.8 60.9 Q 328.4 63.2 332.6 63.2 A 15.276 15.276 0 0 0 337.178 62.532 A 13.606 13.606 0 0 0 339.8 61.4 A 20.855 20.855 0 0 0 342.781 59.384 A 16.309 16.309 0 0 0 345 57.2 Z M 32.1 10.6 L 18.9 44.2 L 45.2 44.2 L 32.1 10.6 Z M 375.1 41.6 L 403.6 41.6 A 24.355 24.355 0 0 0 403.196 37.015 Q 402.7 34.431 401.596 32.407 A 12.422 12.422 0 0 0 399.8 29.9 A 12.488 12.488 0 0 0 392.839 26.125 A 18.395 18.395 0 0 0 389.3 25.8 A 13.58 13.58 0 0 0 384.188 26.735 A 12.524 12.524 0 0 0 379.7 29.85 Q 375.9 33.9 375.1 41.6 Z M 526.9 41.6 L 555.4 41.6 A 24.355 24.355 0 0 0 554.996 37.015 Q 554.5 34.431 553.396 32.407 A 12.422 12.422 0 0 0 551.6 29.9 A 12.488 12.488 0 0 0 544.639 26.125 A 18.395 18.395 0 0 0 541.1 25.8 A 13.58 13.58 0 0 0 535.988 26.735 A 12.524 12.524 0 0 0 531.5 29.85 Q 527.7 33.9 526.9 41.6 Z M 640.5 41.6 L 669 41.6 A 24.355 24.355 0 0 0 668.596 37.015 Q 668.1 34.431 666.996 32.407 A 12.422 12.422 0 0 0 665.2 29.9 A 12.488 12.488 0 0 0 658.239 26.125 A 18.395 18.395 0 0 0 654.7 25.8 A 13.58 13.58 0 0 0 649.588 26.735 A 12.524 12.524 0 0 0 645.1 29.85 Q 641.3 33.9 640.5 41.6 Z" vector-effect="non-scaling-stroke"/></g></svg>